<svg width="232" height="40" viewBox="0 0 232 40" fill="none" xmlns="http://www.w3.org/2000/svg">
<path d="M8 13.364C8 10.4015 10.4015 8 13.364 8C16.3264 8 18.728 10.4015 18.728 13.364V18.728H13.364C10.4015 18.728 8 16.3264 8 13.364Z" fill="#016AFE"/>
<path d="M30.2227 13.364C30.2227 10.4015 27.8211 8 24.8587 8C21.8962 8 19.4947 10.4015 19.4947 13.364V18.728H24.8587C27.8211 18.728 30.2227 16.3264 30.2227 13.364Z" fill="#FE9901"/>
<path d="M13.364 30.2226C10.4015 30.2226 8 27.821 8 24.8586C8 21.8961 10.4015 19.4946 13.364 19.4946H18.728V24.8586C18.728 27.821 16.3264 30.2226 13.364 30.2226Z" fill="#00CC82"/>
<path d="M24.8587 30.2226C27.8211 30.2226 30.2227 27.821 30.2227 24.8586C30.2227 21.8961 27.8211 19.4946 24.8587 19.4946H19.4947V24.8586C19.4947 27.821 21.8962 30.2226 24.8587 30.2226Z" fill="#BC01FE"/>
<mask id="mask0_179_2" style="mask-type:luminance" maskUnits="userSpaceOnUse" x="34" y="11" width="190" height="21">
<path d="M223.112 11.2588H34.3711V31.9995H223.112V11.2588Z" fill="white"/>
</mask>
<g mask="url(#mask0_179_2)">
<path d="M34.6543 26.9069V12.302H43.6155V14.0546H36.4069V18.2066H42.3115V19.9592H36.4069V25.1543H43.6155V26.9069H34.6543ZM45.9014 26.9069V16.4748H47.654V17.7789C48.0226 17.292 48.4851 16.906 49.0415 16.6209C49.6048 16.3288 50.2168 16.1827 50.8775 16.1827C51.6495 16.1827 52.3554 16.3705 52.9952 16.7461C53.6351 17.1216 54.1393 17.6189 54.5079 18.2379C54.8765 17.6189 55.3772 17.1216 56.0101 16.7461C56.6499 16.3705 57.3524 16.1827 58.1174 16.1827C58.9033 16.1827 59.6161 16.374 60.256 16.7565C60.8958 17.1321 61.4035 17.6398 61.7791 18.2796C62.1616 18.9194 62.3528 19.6323 62.3528 20.4182V26.9069H60.6002V20.8355C60.6002 20.3208 60.475 19.8444 60.2247 19.4063C59.9743 18.9681 59.637 18.6169 59.2128 18.3526C58.7885 18.0883 58.3191 17.9562 57.8044 17.9562C57.2898 17.9562 56.8203 18.0814 56.3961 18.3318C55.9719 18.5752 55.6346 18.916 55.3842 19.3541C55.1338 19.7853 55.0086 20.2791 55.0086 20.8355V26.9069H53.256V20.8355C53.256 20.2791 53.1308 19.7853 52.8805 19.3541C52.6301 18.916 52.2893 18.5752 51.8581 18.3318C51.4339 18.0814 50.9644 17.9562 50.4498 17.9562C49.9421 17.9562 49.4727 18.0883 49.0415 18.3526C48.6172 18.6169 48.2799 18.9681 48.0296 19.4063C47.7792 19.8444 47.654 20.3208 47.654 20.8355V26.9069H45.9014ZM66.1954 32.123H64.4429V16.4748H66.1954V18.2587C66.5501 17.6467 67.0231 17.1529 67.6142 16.7774C68.2054 16.3949 68.9078 16.2036 69.7215 16.2036C70.4796 16.2036 71.1889 16.3462 71.8496 16.6313C72.5173 16.9165 73.1015 17.3129 73.6022 17.8206C74.103 18.3213 74.4959 18.902 74.7811 19.5627C75.0662 20.2234 75.2088 20.9328 75.2088 21.6909C75.2088 22.449 75.0662 23.1618 74.7811 23.8295C74.4959 24.4971 74.103 25.0848 73.6022 25.5925C73.1015 26.0932 72.5173 26.4862 71.8496 26.7713C71.1889 27.0565 70.4796 27.199 69.7215 27.199C68.9078 27.199 68.2054 27.0113 67.6142 26.6357C67.0231 26.2532 66.5501 25.7559 66.1954 25.1439V32.123ZM69.7006 17.904C69.026 17.904 68.4349 18.0744 67.9272 18.4152C67.4195 18.756 67.0265 19.2115 66.7483 19.7818C66.4771 20.3521 66.3415 20.9885 66.3415 21.6909C66.3415 22.3864 66.4771 23.0227 66.7483 23.6C67.0265 24.1772 67.416 24.6362 67.9167 24.977C68.4244 25.3178 69.0191 25.4882 69.7006 25.4882C70.3752 25.4882 70.9942 25.3213 71.5575 24.9874C72.1209 24.6467 72.5729 24.1911 72.9137 23.6208C73.2545 23.0436 73.4249 22.4003 73.4249 21.6909C73.4249 20.9954 73.258 20.3625 72.9241 19.7922C72.5903 19.215 72.1417 18.756 71.5784 18.4152C71.0151 18.0744 70.3891 17.904 69.7006 17.904ZM85.2795 16.4748H87.0321V26.9069H85.2795L85.2065 25.1439C84.8796 25.749 84.4276 26.2393 83.8503 26.6148C83.28 26.9904 82.5985 27.1782 81.8056 27.1782C81.0406 27.1782 80.3243 27.0356 79.6566 26.7505C78.989 26.4584 78.3978 26.0585 77.8832 25.5508C77.3754 25.0361 76.979 24.445 76.6939 23.7773C76.4087 23.1097 76.2662 22.3898 76.2662 21.6179C76.2662 20.8737 76.4053 20.1713 76.6834 19.5106C76.9616 18.8499 77.3476 18.2726 77.8414 17.7789C78.3422 17.2781 78.9194 16.8886 79.5732 16.6105C80.2269 16.3253 80.9293 16.1827 81.6805 16.1827C82.5011 16.1827 83.2209 16.3775 83.8399 16.7669C84.4589 17.1494 84.9596 17.6467 85.3421 18.2587L85.2795 16.4748ZM81.7743 25.4777C82.4629 25.4777 83.0575 25.3108 83.5582 24.977C84.0659 24.6362 84.4554 24.1772 84.7266 23.6C85.0048 23.0227 85.1439 22.3864 85.1439 21.6909C85.1439 20.9815 85.0048 20.3417 84.7266 19.7714C84.4484 19.1941 84.0555 18.7386 83.5478 18.4048C83.0471 18.064 82.4559 17.8936 81.7743 17.8936C81.0858 17.8936 80.4599 18.064 79.8966 18.4048C79.3332 18.7456 78.8847 19.2046 78.5508 19.7818C78.224 20.3521 78.0605 20.9885 78.0605 21.6909C78.0605 22.3933 78.2309 23.0332 78.5717 23.6104C78.9125 24.1807 79.3645 24.6362 79.9279 24.977C80.4912 25.3108 81.1067 25.4777 81.7743 25.4777ZM94.5211 18.2274H92.153L92.1425 26.9069H90.39L90.4004 18.2274H88.6061V16.4748H90.4004L90.39 13.1992H92.1425L92.153 16.4748H94.5211V18.2274ZM105.613 20.4182V26.9069H103.86V20.8042C103.86 20.2756 103.732 19.7957 103.474 19.3645C103.217 18.9333 102.873 18.5926 102.442 18.3422C102.01 18.0849 101.531 17.9562 101.002 17.9562C100.48 17.9562 100.001 18.0849 99.5624 18.3422C99.1312 18.5926 98.7869 18.9333 98.5296 19.3645C98.2723 19.7957 98.1436 20.2756 98.1436 20.8042V26.9069H96.391V11.2588H98.1436V17.7789C98.5122 17.292 98.9782 16.906 99.5415 16.6209C100.105 16.3288 100.717 16.1827 101.378 16.1827C102.156 16.1827 102.866 16.374 103.506 16.7565C104.153 17.1321 104.664 17.6398 105.039 18.2796C105.422 18.9194 105.613 19.6323 105.613 20.4182ZM114.519 16.4748H116.376L110.67 32.123H108.813L110.701 26.9069L106.956 16.4748H108.876L111.578 24.4971L114.519 16.4748ZM123.47 26.9069V12.302H128.3C129.308 12.302 130.254 12.4933 131.137 12.8758C132.021 13.2513 132.796 13.7764 133.464 14.451C134.131 15.1187 134.653 15.8941 135.028 16.7774C135.411 17.6537 135.602 18.596 135.602 19.6045C135.602 20.6129 135.411 21.5587 135.028 22.442C134.653 23.3183 134.131 24.0937 133.464 24.7684C132.796 25.436 132.021 25.9611 131.137 26.3436C130.254 26.7192 129.308 26.9069 128.3 26.9069H123.47ZM125.222 25.1543H128.3C129.065 25.1543 129.781 25.0118 130.449 24.7266C131.123 24.4345 131.715 24.0346 132.222 23.5269C132.73 23.0192 133.126 22.4316 133.411 21.7639C133.704 21.0893 133.85 20.3695 133.85 19.6045C133.85 18.8394 133.704 18.1231 133.411 17.4555C133.126 16.7808 132.726 16.1897 132.212 15.682C131.704 15.1743 131.116 14.7779 130.449 14.4927C129.781 14.2006 129.065 14.0546 128.3 14.0546H125.222V25.1543ZM145.692 16.4748H147.444V26.9069H145.692L145.619 25.1439C145.292 25.749 144.84 26.2393 144.263 26.6148C143.692 26.9904 143.011 27.1782 142.218 27.1782C141.453 27.1782 140.737 27.0356 140.069 26.7505C139.401 26.4584 138.81 26.0585 138.295 25.5508C137.788 25.0361 137.391 24.445 137.106 23.7773C136.821 23.1097 136.678 22.3898 136.678 21.6179C136.678 20.8737 136.818 20.1713 137.096 19.5106C137.374 18.8499 137.76 18.2726 138.254 17.7789C138.754 17.2781 139.332 16.8886 139.985 16.6105C140.639 16.3253 141.342 16.1827 142.093 16.1827C142.913 16.1827 143.633 16.3775 144.252 16.7669C144.871 17.1494 145.372 17.6467 145.754 18.2587L145.692 16.4748ZM142.187 25.4777C142.875 25.4777 143.47 25.3108 143.971 24.977C144.478 24.6362 144.868 24.1772 145.139 23.6C145.417 23.0227 145.556 22.3864 145.556 21.6909C145.556 20.9815 145.417 20.3417 145.139 19.7714C144.861 19.1941 144.468 18.7386 143.96 18.4048C143.459 18.064 142.868 17.8936 142.187 17.8936C141.498 17.8936 140.872 18.064 140.309 18.4048C139.746 18.7456 139.297 19.2046 138.963 19.7818C138.636 20.3521 138.473 20.9885 138.473 21.6909C138.473 22.3933 138.643 23.0332 138.984 23.6104C139.325 24.1807 139.777 24.6362 140.34 24.977C140.903 25.3108 141.519 25.4777 142.187 25.4777ZM152.711 27.1052C152.148 27.0843 151.599 26.98 151.063 26.7922C150.534 26.5975 150.069 26.3367 149.665 26.0098C149.269 25.676 148.98 25.2934 148.799 24.8622L150.302 24.2155C150.406 24.4519 150.594 24.6745 150.865 24.8831C151.136 25.0918 151.449 25.2587 151.804 25.3839C152.158 25.509 152.517 25.5716 152.878 25.5716C153.261 25.5716 153.619 25.5125 153.953 25.3943C154.287 25.2761 154.558 25.1022 154.766 24.8727C154.982 24.6362 155.09 24.3546 155.09 24.0277C155.09 23.6799 154.972 23.4087 154.735 23.214C154.506 23.0123 154.214 22.8558 153.859 22.7445C153.511 22.6263 153.156 22.515 152.795 22.4107C152.078 22.2299 151.439 22.0143 150.875 21.7639C150.312 21.5066 149.867 21.1832 149.54 20.7937C149.22 20.3973 149.06 19.8931 149.06 19.2811C149.06 18.6343 149.237 18.0744 149.592 17.6015C149.954 17.1286 150.427 16.7635 151.011 16.5061C151.595 16.2488 152.221 16.1201 152.889 16.1201C153.73 16.1201 154.499 16.301 155.194 16.6626C155.89 17.0243 156.408 17.5146 156.749 18.1335L155.34 18.9577C155.222 18.7073 155.041 18.4882 154.798 18.3005C154.554 18.1057 154.276 17.9527 153.963 17.8414C153.65 17.7302 153.33 17.6711 153.003 17.6641C152.6 17.6502 152.221 17.7024 151.866 17.8206C151.519 17.9388 151.237 18.1196 151.021 18.363C150.813 18.5995 150.708 18.8951 150.708 19.2498C150.708 19.5975 150.82 19.8618 151.042 20.0426C151.272 20.2234 151.567 20.3695 151.929 20.4808C152.298 20.5851 152.697 20.7068 153.129 20.8459C153.761 21.0476 154.353 21.2806 154.902 21.5448C155.451 21.8091 155.893 22.1395 156.227 22.5359C156.568 22.9323 156.735 23.4226 156.728 24.0068C156.728 24.6467 156.536 25.2065 156.154 25.6864C155.771 26.1593 155.274 26.521 154.662 26.7713C154.057 27.0217 153.407 27.133 152.711 27.1052ZM167.737 20.4182V26.9069H165.984V20.8042C165.984 20.2756 165.856 19.7957 165.598 19.3645C165.341 18.9333 164.997 18.5926 164.566 18.3422C164.134 18.0849 163.655 17.9562 163.126 17.9562C162.604 17.9562 162.125 18.0849 161.686 18.3422C161.255 18.5926 160.911 18.9333 160.654 19.3645C160.396 19.7957 160.268 20.2756 160.268 20.8042V26.9069H158.515V11.2588H160.268V17.7789C160.636 17.292 161.102 16.906 161.666 16.6209C162.229 16.3288 162.841 16.1827 163.502 16.1827C164.281 16.1827 164.99 16.374 165.63 16.7565C166.277 17.1321 166.788 17.6398 167.163 18.2796C167.546 18.9194 167.737 19.6323 167.737 20.4182ZM175.224 16.1827C176.24 16.1827 177.161 16.4296 177.989 16.9234C178.823 17.4172 179.487 18.0814 179.981 18.916C180.475 19.7436 180.722 20.6651 180.722 21.6805C180.722 22.4385 180.579 23.1514 180.294 23.819C180.009 24.4797 179.613 25.0639 179.105 25.5716C178.604 26.0724 178.02 26.4653 177.352 26.7505C176.692 27.0356 175.982 27.1782 175.224 27.1782C174.417 27.1782 173.715 26.9904 173.117 26.6148C172.526 26.2323 172.053 25.7351 171.698 25.123V26.9069H169.946V11.2588H171.698V18.2379C172.053 17.6258 172.526 17.1321 173.117 16.7565C173.715 16.374 174.417 16.1827 175.224 16.1827ZM175.203 25.4673C175.892 25.4673 176.518 25.2969 177.081 24.9561C177.644 24.6154 178.093 24.1598 178.427 23.5895C178.761 23.0123 178.928 22.3759 178.928 21.6805C178.928 20.9711 178.757 20.3312 178.416 19.761C178.076 19.1837 177.624 18.7282 177.06 18.3943C176.497 18.0536 175.878 17.8832 175.203 17.8832C174.522 17.8832 173.927 18.0536 173.419 18.3943C172.919 18.7351 172.529 19.1941 172.251 19.7714C171.98 20.3486 171.844 20.985 171.844 21.6805C171.844 22.3829 171.98 23.0227 172.251 23.6C172.529 24.1703 172.922 24.6258 173.43 24.9666C173.938 25.3004 174.529 25.4673 175.203 25.4673ZM186.985 27.1782C186.025 27.1782 185.149 26.9313 184.356 26.4375C183.57 25.9437 182.941 25.283 182.468 24.4554C182.002 23.6208 181.769 22.6993 181.769 21.6909C181.769 20.9259 181.905 20.213 182.176 19.5523C182.447 18.8847 182.819 18.3005 183.292 17.7997C183.772 17.292 184.328 16.8956 184.961 16.6105C185.594 16.3253 186.269 16.1827 186.985 16.1827C187.945 16.1827 188.818 16.4296 189.604 16.9234C190.396 17.4172 191.026 18.0814 191.492 18.916C191.965 19.7505 192.201 20.6755 192.201 21.6909C192.201 22.449 192.066 23.1583 191.794 23.819C191.523 24.4797 191.148 25.0639 190.668 25.5716C190.195 26.0724 189.642 26.4653 189.009 26.7505C188.383 27.0356 187.708 27.1782 186.985 27.1782ZM186.985 25.4256C187.639 25.4256 188.227 25.2552 188.748 24.9144C189.277 24.5667 189.691 24.1111 189.99 23.5478C190.296 22.9775 190.449 22.3585 190.449 21.6909C190.449 21.0093 190.292 20.3834 189.979 19.8131C189.673 19.2428 189.259 18.7873 188.738 18.4465C188.216 18.1057 187.632 17.9353 186.985 17.9353C186.331 17.9353 185.744 18.1092 185.222 18.4569C184.7 18.7977 184.287 19.2533 183.981 19.8235C183.675 20.3938 183.522 21.0163 183.522 21.6909C183.522 22.3864 183.678 23.0192 183.991 23.5895C184.304 24.1529 184.725 24.6014 185.253 24.9353C185.782 25.2621 186.359 25.4256 186.985 25.4256ZM202.253 16.4748H204.006V26.9069H202.253L202.18 25.1439C201.853 25.749 201.401 26.2393 200.824 26.6148C200.254 26.9904 199.572 27.1782 198.779 27.1782C198.014 27.1782 197.298 27.0356 196.63 26.7505C195.963 26.4584 195.372 26.0585 194.857 25.5508C194.349 25.0361 193.953 24.445 193.668 23.7773C193.383 23.1097 193.24 22.3898 193.24 21.6179C193.24 20.8737 193.379 20.1713 193.657 19.5106C193.935 18.8499 194.321 18.2726 194.815 17.7789C195.316 17.2781 195.893 16.8886 196.547 16.6105C197.201 16.3253 197.903 16.1827 198.654 16.1827C199.475 16.1827 200.195 16.3775 200.814 16.7669C201.433 17.1494 201.933 17.6467 202.316 18.2587L202.253 16.4748ZM198.748 25.4777C199.437 25.4777 200.031 25.3108 200.532 24.977C201.04 24.6362 201.429 24.1772 201.7 23.6C201.979 23.0227 202.118 22.3864 202.118 21.6909C202.118 20.9815 201.979 20.3417 201.7 19.7714C201.422 19.1941 201.029 18.7386 200.522 18.4048C200.021 18.064 199.43 17.8936 198.748 17.8936C198.06 17.8936 197.434 18.064 196.87 18.4048C196.307 18.7456 195.858 19.2046 195.525 19.7818C195.198 20.3521 195.034 20.9885 195.034 21.6909C195.034 22.3933 195.205 23.0332 195.546 23.6104C195.886 24.1807 196.338 24.6362 196.902 24.977C197.465 25.3108 198.081 25.4777 198.748 25.4777ZM206.091 26.9069V16.4748H207.844V17.7789C208.212 17.292 208.678 16.906 209.242 16.6209C209.805 16.3288 210.417 16.1827 211.078 16.1827C211.481 16.1827 211.87 16.2349 212.246 16.3392L211.537 18.0918C211.251 18.0014 210.973 17.9562 210.702 17.9562C210.18 17.9562 209.701 18.0849 209.262 18.3422C208.831 18.5926 208.487 18.9333 208.23 19.3645C207.972 19.7957 207.844 20.2756 207.844 20.8042V26.9069H206.091ZM221.396 11.2588H223.149V26.9069H221.396V25.1335C221.042 25.7455 220.565 26.2393 219.967 26.6148C219.369 26.9904 218.667 27.1782 217.86 27.1782C217.102 27.1782 216.392 27.0356 215.732 26.7505C215.071 26.4653 214.487 26.0724 213.979 25.5716C213.478 25.0639 213.085 24.4797 212.8 23.819C212.515 23.1583 212.372 22.449 212.372 21.6909C212.372 20.9328 212.515 20.2234 212.8 19.5627C213.085 18.8951 213.478 18.3109 213.979 17.8101C214.487 17.3025 215.071 16.906 215.732 16.6209C216.392 16.3357 217.102 16.1932 217.86 16.1932C218.667 16.1932 219.369 16.381 219.967 16.7565C220.565 17.1321 221.042 17.6258 221.396 18.2379V11.2588ZM217.881 25.4777C218.569 25.4777 219.164 25.3108 219.665 24.977C220.172 24.6362 220.562 24.1772 220.833 23.6C221.111 23.0227 221.25 22.3864 221.25 21.6909C221.25 20.9815 221.111 20.3417 220.833 19.7714C220.555 19.1941 220.162 18.7386 219.654 18.4048C219.153 18.064 218.562 17.8936 217.881 17.8936C217.192 17.8936 216.566 18.064 216.003 18.4048C215.446 18.7456 215.001 19.2046 214.668 19.7818C214.334 20.3521 214.167 20.9885 214.167 21.6909C214.167 22.3933 214.337 23.0332 214.678 23.6104C215.019 24.1807 215.471 24.6362 216.034 24.977C216.597 25.3108 217.213 25.4777 217.881 25.4777Z" fill="white"/>
</g>
</svg>
